<svg width="23" height="23" viewBox="0 0 23 23" fill="none" xmlns="http://www.w3.org/2000/svg">
<path d="M19.2258 17.9186C20.2581 16.6767 20.976 15.2044 21.3189 13.6263C21.6617 12.0483 21.6195 10.4109 21.1957 8.85258C20.7719 7.2943 19.9791 5.86101 18.8842 4.67396C17.7893 3.4869 16.4247 2.58101 14.9056 2.03291C13.3866 1.48482 11.7579 1.31064 10.1573 1.52511C8.55678 1.73959 7.0314 2.33641 5.71027 3.26508C4.38913 4.19376 3.3111 5.42697 2.56737 6.86039C1.82364 8.29381 1.43609 9.88528 1.4375 11.5002C1.43805 13.8477 2.26532 16.1201 3.77416 17.9186L3.75979 17.9308C3.8101 17.9912 3.8676 18.0429 3.91935 18.1026C3.98404 18.1766 4.05375 18.2463 4.1206 18.3182C4.32185 18.5367 4.52885 18.7466 4.74591 18.9435C4.81204 19.0039 4.88032 19.06 4.94716 19.1175C5.17716 19.3158 5.41363 19.5042 5.65872 19.6795C5.69035 19.7011 5.7191 19.7291 5.75072 19.7514V19.7428C7.43411 20.9274 9.4423 21.5632 11.5007 21.5632C13.5591 21.5632 15.5673 20.9274 17.2507 19.7428V19.7514C17.2823 19.7291 17.3104 19.7011 17.3427 19.6795C17.5871 19.5034 17.8243 19.3158 18.0543 19.1175C18.1211 19.06 18.1894 19.0032 18.2555 18.9435C18.4726 18.7459 18.6796 18.5367 18.8808 18.3182C18.9477 18.2463 19.0167 18.1766 19.0821 18.1026C19.1331 18.0429 19.1913 17.9912 19.2417 17.9301L19.2258 17.9186ZM11.5 5.75016C12.1397 5.75016 12.765 5.93985 13.2969 6.29525C13.8288 6.65064 14.2434 7.15579 14.4882 7.74679C14.733 8.33779 14.797 8.98812 14.6722 9.61553C14.5474 10.2429 14.2394 10.8192 13.7871 11.2716C13.3347 11.7239 12.7584 12.032 12.131 12.1568C11.5036 12.2816 10.8533 12.2175 10.2623 11.9727C9.67126 11.7279 9.16612 11.3133 8.81072 10.7815C8.45532 10.2496 8.26563 9.62423 8.26563 8.98453C8.26563 8.12672 8.60639 7.30405 9.21296 6.69748C9.81952 6.09092 10.6422 5.75016 11.5 5.75016ZM5.75503 17.9186C5.7675 16.9749 6.15103 16.074 6.82264 15.4108C7.49424 14.7477 8.39993 14.3756 9.34375 14.3752H13.6563C14.6001 14.3756 15.5058 14.7477 16.1774 15.4108C16.849 16.074 17.2325 16.9749 17.245 17.9186C15.6686 19.3391 13.6219 20.1252 11.5 20.1252C9.37807 20.1252 7.33137 19.3391 5.75503 17.9186Z" fill="black"/>
</svg>
