<svg width="24" height="24" viewBox="0 0 24 24" fill="none" xmlns="http://www.w3.org/2000/svg">
<path d="M21.468 3.19353C20.6595 1.20303 18.3626 0.233276 16.3369 1.02715C14.7919 1.63353 13.8536 3.09115 13.8529 4.63128H10.3954L9.11025 3.36865C8.15513 2.42965 6.60525 2.42928 5.64975 3.36865L2.25 6.7084L2.769 7.2184L6.16875 3.87828C6.83775 3.2209 7.92225 3.22128 8.59125 3.87828L9.35737 4.63128H8.487C10.2413 8.70828 4.908 16.0924 11.1124 17.3333C11.1082 17.3352 11.1034 17.337 11.1071 17.3385C13.0035 17.9955 12.9023 19.5627 12.2831 21.0379C11.6273 22.6005 10.0564 22.8855 10.0417 22.8945C9.99525 22.9215 9.96788 23.007 9.97463 23.0959C9.98325 23.1844 10.0234 23.25 10.0717 23.25H16.299C16.347 23.25 16.3879 23.1844 16.3954 23.0959C16.4033 23.007 16.3744 22.9215 16.3282 22.8945C16.3132 22.8855 14.7435 22.6005 14.0873 21.0379C13.4681 19.5623 13.3673 17.9955 15.2629 17.3385C15.2674 17.337 15.2618 17.3352 15.2576 17.3333C19.7726 16.4307 18.1792 12.2749 17.652 8.50728C18.2023 8.52867 18.751 8.43598 19.2638 8.23503C21.2891 7.44153 22.2758 5.18403 21.468 3.19353ZM13.1854 16.8499C5.34412 16.8499 10.8544 8.97978 9.2445 4.97853H9.711L12.8302 8.04303C12.0788 7.81728 11.289 7.63315 10.4261 7.63315C10.2975 7.63315 10.1681 7.63728 10.0357 7.6459C10.0084 9.06565 9.61013 10.6808 9.46838 12.1257C9.24563 14.403 9.66263 16.2585 13.185 16.2585C16.1175 16.2585 16.8971 14.9719 16.9481 13.2274C16.986 11.9172 16.6132 10.3485 16.4303 8.87028C16.3774 8.87253 16.3253 8.87328 16.2724 8.87328C15.6323 8.87328 15.0037 8.72403 14.3632 8.53015L10.7479 4.97815H13.8671C13.9009 5.3434 13.986 5.70978 14.1315 6.0679C14.6306 7.29828 15.699 8.13715 16.9204 8.4124C17.4067 12.3402 19.1209 16.8499 13.1854 16.8499ZM16.1033 11.2594L16.2008 11.1638C16.2832 11.7087 16.3507 12.2333 16.3717 12.7219C16.3391 12.7227 16.3057 12.7234 16.272 12.7234C15.483 12.7234 14.6715 12.4583 13.8124 12.1774C12.8197 11.8534 11.6944 11.4855 10.4269 11.4855C10.3249 11.4855 10.2232 11.4878 10.1209 11.4927C10.17 11.1413 10.2285 10.7813 10.2889 10.4074C10.4074 9.67503 10.5293 8.92278 10.5821 8.19753C11.6036 8.2264 12.5422 8.53353 13.4505 8.8309C13.5409 8.86053 13.6301 8.88828 13.7201 8.91715L16.1033 11.2594ZM15.162 9.31428C15.4148 9.3649 15.669 9.40615 15.9281 9.42415C15.9656 9.67915 16.0065 9.9319 16.047 10.1839L15.162 9.31428ZM16.1903 7.6339C16.2922 7.62078 16.3605 7.53228 16.4355 7.52853C16.4561 7.5274 16.6192 7.20003 16.8158 6.7819C16.8146 6.86928 16.8135 6.95665 16.815 7.04553C16.6804 7.36728 16.5784 7.62528 16.5637 7.70628C16.5514 7.78053 16.6534 7.82365 16.6774 7.89528C16.6882 7.92865 16.7621 7.95565 16.8727 7.9774L16.8915 8.1544C15.7826 7.87728 14.8185 7.10403 14.3617 5.9794C14.2325 5.65929 14.1501 5.32219 14.1173 4.97853H14.3381C14.349 5.32315 14.3794 5.60328 14.4274 5.63928C14.5084 5.70003 14.6216 5.68465 14.6768 5.7334C14.706 5.75853 15.9934 5.29278 16.7685 4.97853H16.9616C16.2379 5.2549 14.9171 5.76678 14.7457 5.88303C14.6831 5.9269 14.724 6.02778 14.6891 6.09415C14.5946 6.27115 16.0249 7.65378 16.1903 7.6339ZM19.1711 8.00928C18.6775 8.20246 18.1484 8.28849 17.619 8.26165C17.6096 8.1874 17.601 8.11315 17.5924 8.03928C18.165 8.05578 18.804 8.02315 18.8602 7.95265C18.924 7.87353 18.9075 7.7644 18.9578 7.7104C18.9964 7.66915 17.9602 5.03253 17.8969 5.1244C17.8425 5.20278 17.7649 5.15365 17.7142 5.11878C17.7619 4.95228 17.8159 4.78878 17.8834 4.63128H17.2987C17.3003 4.5724 17.3629 4.51128 17.3704 4.48765C17.3704 4.48765 14.9651 3.4579 14.6798 3.4099C14.6036 3.3964 14.5594 3.49578 14.4859 3.51828C14.3843 3.55053 14.337 4.09953 14.3333 4.63128H14.1C14.1007 3.18678 14.9801 1.82103 16.4284 1.2529C18.327 0.508526 20.4814 1.41715 21.2385 3.28353C21.9956 5.14915 21.0705 7.26565 19.1711 8.00928Z" fill="black"/>
<path d="M18.945 1.37037C18.8824 1.18024 16.863 1.18437 16.761 1.31224C16.6984 1.39137 16.7145 1.50124 16.6643 1.55487C16.6256 1.59649 17.6629 4.23312 17.7255 4.14124C17.7971 4.03699 17.9126 4.15999 17.9471 4.17049C17.9471 4.17049 19.0076 1.83574 19.0575 1.55824C19.0706 1.48474 18.9686 1.44124 18.945 1.37037Z" fill="black"/>
<path d="M21.1826 3.60089C21.1013 3.53939 20.9888 3.55477 20.9321 3.50639C20.8901 3.46889 18.1748 4.47577 18.2689 4.53614C18.3765 4.60627 18.2494 4.71802 18.2378 4.75177C18.2378 4.75177 20.6441 5.78114 20.9288 5.83027C21.0056 5.84302 21.0499 5.74364 21.123 5.72039C21.3184 5.66002 21.3146 3.69914 21.1826 3.60089Z" fill="black"/>
<path d="M16.3226 1.61028C16.1404 1.51878 14.715 2.90741 14.736 3.06791C14.7495 3.16728 14.8395 3.23366 14.8444 3.30641C14.8481 3.36228 17.5001 4.51503 17.478 4.40666C17.4533 4.28328 17.6246 4.29228 17.6569 4.27578C17.6569 4.27578 16.7059 1.89603 16.5398 1.66578C16.4944 1.60391 16.3905 1.64366 16.3226 1.61028Z" fill="black"/>
<path d="M18.2123 4.89723C18.2374 5.0206 18.0656 5.01273 18.0334 5.02923C18.0334 5.02923 18.9848 7.40785 19.1513 7.63885C19.1955 7.6996 19.2994 7.66023 19.3669 7.6936C19.5495 7.78473 20.9745 6.39573 20.9535 6.2356C20.9411 6.1366 20.8493 6.0706 20.8455 5.9971C20.8425 5.94198 18.1905 4.7896 18.2123 4.89723Z" fill="black"/>
<path d="M18.0551 4.2544C18.1826 4.22927 18.1744 4.39615 18.1909 4.42765C18.1909 4.42765 20.6407 3.5044 20.8789 3.3424C20.9415 3.29965 20.9006 3.19765 20.9351 3.13165C21.0292 2.95465 19.599 1.57165 19.434 1.59152C19.332 1.60427 19.2634 1.69315 19.1884 1.69765C19.1321 1.70065 17.9452 4.2754 18.0551 4.2544Z" fill="black"/>
</svg>
